<svg width="20" height="25" viewBox="0 0 20 25" fill="none" xmlns="http://www.w3.org/2000/svg">
<path d="M10.1042 0C8.75 0 7.45226 0.256348 6.21094 0.769043C4.96962 1.28174 3.89757 1.96533 2.99479 2.81982C2.09201 3.67432 1.36719 4.6875 0.820312 5.85938C0.273438 7.03125 0 8.25195 0 9.52148C0 10.2376 0.104167 10.9863 0.3125 11.7676C0.520833 12.5488 0.763889 13.2731 1.04167 13.9404C1.31944 14.6077 1.71875 15.3483 2.23958 16.1621C2.76042 16.9759 3.22483 17.6636 3.63281 18.2251C4.0408 18.7866 4.59201 19.4702 5.28646 20.2759C5.9809 21.0815 6.5191 21.696 6.90104 22.1191C7.28299 22.5423 7.82118 23.1283 8.51562 23.877C8.72396 24.1048 8.88021 24.2676 8.98438 24.3652C9.0191 24.4141 9.07986 24.4751 9.16667 24.5483C9.25347 24.6216 9.40972 24.7152 9.63542 24.8291C9.86111 24.943 10.0781 25 10.2865 25H10.3646C10.8507 25 11.2847 24.7884 11.6667 24.3652C17.2222 18.3757 20 13.4277 20 9.52148C20 6.80339 19.1146 4.54915 17.3438 2.75879C15.5035 0.919596 13.0903 0 10.1042 0ZM10.4167 23.3154C10.3993 23.348 10.3646 23.3805 10.3125 23.4131L10.2083 23.3154L9.76562 22.8516C9.1059 22.1354 8.59375 21.578 8.22917 21.1792C7.86458 20.7804 7.35243 20.1986 6.69271 19.4336C6.03299 18.6686 5.51215 18.0216 5.13021 17.4927C4.74826 16.9637 4.30556 16.3208 3.80208 15.564C3.29861 14.8071 2.91233 14.1235 2.64323 13.5132C2.37413 12.9028 2.1441 12.2437 1.95312 11.5356C1.76215 10.8276 1.66667 10.1562 1.66667 9.52148C1.66667 8.10547 2.04861 6.78304 2.8125 5.5542C3.57639 4.32536 4.60503 3.35286 5.89844 2.63672C7.19184 1.92057 8.59375 1.5625 10.1042 1.5625C11.4757 1.5625 12.6997 1.7863 13.776 2.23389C14.8524 2.68148 15.7161 3.28776 16.3672 4.05273C17.0182 4.81771 17.5087 5.66406 17.8385 6.5918C18.1684 7.51953 18.3333 8.49609 18.3333 9.52148C18.3333 13.0371 15.6944 17.6351 10.4167 23.3154ZM10.026 4.71191C9.48785 4.71191 8.96267 4.79329 8.45052 4.95605C7.93837 5.11881 7.4783 5.34261 7.07031 5.62744C6.66233 5.91227 6.30208 6.25 5.98958 6.64062C5.67708 7.03125 5.43837 7.46256 5.27344 7.93457C5.10851 8.40658 5.02604 8.89486 5.02604 9.39941C5.02604 10.7015 5.51649 11.8083 6.4974 12.7197C7.4783 13.6312 8.65885 14.0869 10.0391 14.0869C11.4193 14.0869 12.5955 13.6312 13.5677 12.7197C14.5399 11.8083 15.026 10.7015 15.026 9.39941C15.026 8.76465 14.8958 8.15837 14.6354 7.58057C14.375 7.00277 14.0191 6.50635 13.5677 6.09131C13.1163 5.67627 12.5825 5.34261 11.9661 5.09033C11.3498 4.83805 10.7031 4.71191 10.026 4.71191ZM10.026 12.5244C9.1059 12.5244 8.31597 12.2152 7.65625 11.5967C6.99653 10.9782 6.66667 10.2376 6.66667 9.375C6.66667 8.51237 6.99219 7.77588 7.64323 7.16553C8.29427 6.55518 9.07986 6.25 10 6.25C10.9201 6.25 11.7057 6.55518 12.3568 7.16553C13.0078 7.77588 13.3333 8.51237 13.3333 9.375C13.3333 10.4492 12.8733 11.3037 11.9531 11.9385C11.3802 12.3291 10.7378 12.5244 10.026 12.5244Z" fill="black"/>
</svg>
